<svg xmlns="http://www.w3.org/2000/svg"  width="180" height="38" viewBox="840 0 200 122" data-version="1" data-id="lg_gpb0xoj77yNUwKSqmn"><g id="outer-wrapper" transform="matrix(1,0,0,1,0,0)"><g id="inner-wrapper" transform="matrix(0.9714693295292439,0,0,0.9714693295292439,10,1.7403708987161224)"><rect width="575.648" height="122.04" x="249.1038898678416" y="-400.41999999999996" fill="none" rx="0" ry="0" transform="translate(544.89 400.4)"></rect><path fill="#fff" d="M857.9278898678415 83.15000000000003Q859.3378898678415 83.58000000000004 859.8178898678415 84.55000000000001Q860.3078898678415 85.53000000000003 860.4178898678415 86.71000000000004Q855.4478898678415 91.68000000000006 849.1778898678415 94.38000000000005Q842.9178898678415 97.08000000000004 835.7878898678415 97.08000000000004Q828.5578898678415 97.08000000000004 821.9078898678415 94.71000000000004Q815.2678898678415 92.33000000000004 810.0278898678415 87.42000000000002Q804.7978898678415 82.5 801.7678898678415 75Q798.7478898678415 67.49000000000001 798.7478898678415 57.120000000000005Q798.7478898678415 46.860000000000014 802.1478898678415 39.360000000000014Q805.5478898678415 31.850000000000023 811.1078898678414 26.939999999999998Q816.6778898678415 22.019999999999982 823.4278898678415 19.589999999999975T836.8678898678414 17.159999999999968Q844.7578898678414 17.159999999999968 850.6378898678414 18.399999999999977Q856.5278898678414 19.649999999999977 860.8478898678414 22.019999999999982Q861.0578898678414 26.99000000000001 860.0378898678414 31.310000000000002Q859.0078898678414 35.629999999999995 857.4978898678414 39.73000000000002Q856.4178898678414 39.84000000000003 855.1178898678414 39.73000000000002Q853.8278898678413 39.629999999999995 852.7478898678414 39.19L851.5578898678414 25.25999999999999Q847.9978898678414 23.75 844.7578898678414 23.319999999999993T837.6278898678414 22.889999999999986Q830.0678898678414 22.889999999999986 824.0678898678414 27.41999999999996Q818.0778898678413 31.95999999999998 814.6778898678414 39.72999999999996Q811.2778898678414 47.509999999999934 811.2778898678414 57.11999999999995Q811.2778898678414 67.26999999999992 814.1878898678415 74.99999999999994Q817.1078898678414 82.71999999999997 822.8278898678415 87.03999999999996Q828.5578898678415 91.35999999999996 836.9778898678414 91.35999999999996Q843.6778898678414 91.35999999999996 848.7478898678414 88.97999999999996Q853.8278898678413 86.60999999999996 857.9278898678414 83.14999999999998M918.0878898678415 41.039999999999964V89.74999999999994Q919.9178898678414 90.82999999999993 921.8678898678414 91.14999999999992Q923.8078898678414 91.4799999999999 925.6478898678414 91.90999999999991Q925.9678898678413 93.84999999999991 925.1078898678413 95.68999999999988Q923.3778898678413 96.00999999999988 921.0578898678414 96.2299999999999Q918.7378898678413 96.43999999999988 916.2478898678413 96.43999999999988Q912.7978898678414 96.43999999999988 910.1978898678414 95.7999999999999L908.3678898678413 87.7999999999999H907.8278898678413Q902.3178898678414 92.76999999999992 897.6178898678413 94.71999999999991Q892.9178898678414 96.65999999999991 887.4178898678414 96.65999999999991Q879.6378898678414 96.65999999999991 876.2378898678413 92.33999999999992T872.8378898678413 80.45999999999992V47.40999999999991L864.9478898678414 46.5499999999999Q864.6278898678414 44.38999999999987 865.4878898678414 42.769999999999925Q869.3778898678414 42.229999999999905 872.7778898678414 41.469999999999914Q876.1778898678414 40.719999999999914 879.5278898678414 39.84999999999991Q880.6078898678414 39.95999999999992 881.5778898678415 40.229999999999905Q882.5578898678415 40.499999999999886 883.6378898678414 41.03999999999991V78.83999999999992Q883.6378898678414 83.37999999999994 884.9878898678414 85.5399999999999T888.5978898678414 88.39999999999992Q890.8678898678414 89.09999999999991 893.7878898678415 89.09999999999991Q897.2378898678414 89.09999999999991 901.0178898678415 87.0499999999999T907.2878898678415 82.18999999999988V47.409999999999854L899.3978898678415 46.54999999999984Q899.0778898678415 44.389999999999816 899.9378898678415 42.76999999999987Q903.8278898678415 42.22999999999985 907.2278898678416 41.46999999999986Q910.6378898678415 40.71999999999986 913.9778898678416 39.84999999999985Q915.0578898678415 39.959999999999866 916.0378898678415 40.22999999999985Q917.0078898678415 40.49999999999983 918.0878898678416 41.03999999999985M949.0778898678416 58.52999999999986V89.51999999999987L959.5578898678416 91.6799999999999Q959.8778898678415 93.7299999999999 959.0178898678415 95.45999999999987Q957.0778898678416 95.34999999999985 954.2078898678416 95.24999999999989L948.5378898678415 95.02999999999986Q945.7378898678415 94.91999999999985 943.6778898678415 94.91999999999985Q940.6578898678415 94.91999999999985 937.0978898678416 95.07999999999987Q933.5278898678415 95.24999999999989 930.5078898678415 95.45999999999987Q930.1778898678416 93.40999999999985 930.7178898678416 91.6799999999999Q932.7778898678415 91.13999999999987 934.7678898678415 90.70999999999987Q936.7678898678415 90.27999999999986 938.2778898678415 89.51999999999987V47.400000000000034L929.3178898678416 46.54000000000002Q928.9978898678415 44.379999999999995 929.8578898678415 42.76000000000005Q933.7478898678415 42.22000000000003 937.6878898678416 41.460000000000036Q941.6278898678415 40.710000000000036 944.9778898678416 39.84000000000003Q946.0578898678416 39.950000000000045 946.7578898678415 40.22000000000003T948.5378898678415 41.03000000000003V50.860000000000014L948.6478898678415 50.97000000000003Q951.9978898678415 46 956.1578898678415 42.54000000000002Q960.3178898678416 39.09000000000003 965.0678898678416 39.09000000000003Q966.8978898678415 39.09000000000003 968.6878898678416 39.360000000000014Q970.4678898678416 39.629999999999995 972.1978898678416 40.710000000000036Q972.4078898678415 45.13000000000005 971.8178898678416 49.13000000000005Q971.2178898678416 53.13000000000005 970.0378898678416 56.910000000000025Q969.2778898678416 57.01000000000005 967.6578898678416 56.960000000000036T965.1778898678416 56.47000000000003L963.6578898678416 45.670000000000016Q959.8778898678416 45.670000000000016 956.0478898678416 48.43000000000001Q952.2178898678416 51.18000000000001 949.0778898678416 58.53000000000003M992.6078898678415 96.76000000000005Q986.1278898678415 96.76000000000005 981.6978898678415 93.36000000000007Q977.2678898678415 89.95000000000005 977.2678898678415 83.04000000000008Q977.2678898678415 77.6400000000001 979.9178898678415 74.19000000000005Q982.5578898678415 70.73000000000008 987.0478898678415 68.84000000000003Q991.5278898678415 66.95000000000005 997.0378898678415 66.30000000000001Q1002.5378898678415 65.65000000000003 1008.2678898678415 65.75999999999999L1008.3778898678415 56.25999999999999Q1008.4778898678416 50.20999999999998 1006.1078898678415 46.920000000000016Q1003.7278898678416 43.620000000000005 998.8678898678415 43.620000000000005Q996.1678898678415 43.620000000000005 993.6878898678415 44Q991.1978898678415 44.379999999999995 988.7178898678414 45.24000000000001L987.3178898678415 56.69Q986.4478898678415 57.120000000000005 984.9378898678415 57.18000000000001Q983.4278898678415 57.23000000000002 982.5578898678415 57.120000000000005Q981.5878898678415 53.56 980.9378898678415 49.99000000000001Q980.2978898678415 46.43000000000001 980.3978898678415 43.079999999999984Q985.4778898678414 40.70999999999998 990.6078898678414 39.72999999999996Q995.7378898678414 38.759999999999934 1001.7878898678415 38.759999999999934T1011.5578898678415 40.70999999999992Q1015.2878898678415 42.64999999999992 1017.0678898678415 47.39999999999992T1018.8478898678414 60.68999999999994V89.62999999999994Q1020.6878898678414 90.48999999999995 1022.6278898678414 90.86999999999995Q1024.5778898678413 91.24999999999994 1026.4078898678413 91.78999999999996Q1026.7378898678412 93.83999999999997 1025.8678898678413 95.56999999999994Q1024.1378898678413 95.88999999999993 1021.7078898678413 96.10999999999996T1016.7978898678413 96.32999999999998Q1013.2378898678413 96.32999999999998 1010.6378898678413 95.68L1009.1278898678413 90.06H1008.6978898678412Q1005.9978898678413 92.87 1001.9978898678413 94.81Q998.0078898678413 96.75999999999999 992.6078898678413 96.75999999999999M996.7078898678413 90.82Q999.7378898678413 90.82 1003.1878898678414 88.93Q1006.6478898678413 87.04000000000002 1008.2678898678413 84.66000000000003V70.08000000000004Q997.1378898678413 70.08000000000004 992.6078898678413 72.73000000000002Q988.0678898678412 75.37 988.0678898678412 81.96000000000004Q988.0678898678412 86.39000000000004 990.4478898678412 88.60000000000002Q992.8178898678412 90.82000000000005 996.7078898678412 90.82000000000005M1051.5778898678413 88.98000000000008H1077.4978898678412L1080.4078898678413 75.7000000000001Q1081.707889867841 75.48000000000008 1082.457889867841 75.54000000000008Q1083.2178898678412 75.59000000000009 1084.2978898678411 76.0200000000001Q1084.9478898678412 80.67000000000007 1085.1578898678413 85.42000000000007Q1085.377889867841 90.17000000000007 1085.377889867841 94.92000000000007H1046.1778898678413Q1043.147889867841 94.92000000000007 1038.9878898678412 95.0800000000001Q1034.837889867841 95.25000000000011 1031.8078898678411 95.4600000000001Q1031.4878898678412 93.41000000000008 1032.0278898678412 91.68000000000012Q1034.397889867841 91.1400000000001 1036.5078898678412 90.7100000000001T1040.2378898678412 89.5200000000001V24.720000000000084L1031.9178898678413 22.56000000000006Q1031.5978898678413 20.510000000000048 1032.4578898678412 18.780000000000086Q1035.3778898678413 18.8900000000001 1038.9878898678412 19.11000000000007Q1042.607889867841 19.32000000000005 1045.6378898678413 19.32000000000005Q1048.7678898678412 19.32000000000005 1053.087889867841 19.11000000000007Q1057.4078898678413 18.890000000000043 1060.4278898678413 18.780000000000086Q1060.7578898678412 20.830000000000098 1060.2178898678412 22.56000000000006Q1058.0578898678414 22.780000000000086 1055.897889867841 23.160000000000082Q1053.7378898678412 23.530000000000086 1051.5778898678411 24.720000000000084ZM1108.8178898678411 41.030000000000086V89.5200000000001L1116.0478898678411 91.68000000000012Q1116.3778898678413 93.73000000000013 1115.5078898678412 95.4600000000001Q1112.5978898678413 95.25000000000011 1109.5178898678414 95.0800000000001Q1106.4378898678412 94.92000000000007 1103.4178898678413 94.92000000000007Q1100.3878898678413 94.92000000000007 1096.8278898678413 95.0800000000001Q1093.2578898678412 95.25000000000011 1090.2378898678412 95.4600000000001Q1089.917889867841 93.41000000000008 1090.4578898678412 91.68000000000012Q1092.5078898678412 91.1400000000001 1094.5078898678412 90.7100000000001Q1096.4978898678412 90.28000000000009 1098.0178898678412 89.5200000000001V47.400000000000034L1089.0478898678411 46.54000000000002Q1088.727889867841 44.379999999999995 1089.587889867841 42.76000000000005Q1093.477889867841 42.22000000000003 1097.417889867841 41.460000000000036Q1101.357889867841 40.710000000000036 1104.707889867841 39.84000000000003Q1105.7878898678412 39.950000000000045 1106.7578898678412 40.22000000000003Q1107.7378898678412 40.49000000000001 1108.8178898678411 41.03000000000003M1101.577889867841 30.010000000000048Q1099.737889867841 30.010000000000048 1098.227889867841 28.83000000000004Q1096.717889867841 27.640000000000043 1095.857889867841 25.910000000000025Q1094.987889867841 24.180000000000007 1094.987889867841 22.670000000000016Q1094.987889867841 21.27000000000004 1096.177889867841 19.810000000000002T1099.147889867841 17.319999999999993Q1100.927889867841 16.30000000000001 1102.657889867841 16.30000000000001Q1104.597889867841 16.30000000000001 1106.117889867841 17.54000000000002Q1107.627889867841 18.78000000000003 1108.437889867841 20.460000000000036Q1109.247889867841 22.130000000000052 1109.247889867841 23.640000000000043Q1109.247889867841 25.050000000000068 1108.107889867841 26.56000000000006Q1106.977889867841 28.07000000000005 1105.1978898678412 29.040000000000077T1101.5778898678411 30.010000000000105M1139.1578898678413 40.810000000000116L1138.837889867841 48.16000000000014L1138.9478898678412 48.27000000000015Q1144.127889867841 43.080000000000155 1149.6378898678413 41.14000000000016Q1155.147889867841 39.19000000000017 1159.2478898678412 39.19000000000017Q1166.2678898678412 39.19000000000017 1170.3178898678411 43.19000000000017T1174.3678898678413 54.85000000000019L1174.4778898678412 89.52000000000021L1182.0378898678412 91.68000000000023Q1182.357889867841 93.73000000000025 1181.4978898678412 95.4600000000002Q1178.5778898678413 95.25000000000023 1175.337889867841 95.08000000000021Q1172.0978898678413 94.92000000000019 1169.0778898678413 94.92000000000019T1162.7078898678412 95.08000000000021Q1159.357889867841 95.25000000000023 1156.337889867841 95.4600000000002Q1156.0078898678412 93.4100000000002 1156.5478898678411 91.68000000000023Q1158.7078898678412 91.25000000000023 1160.3878898678413 90.7100000000002Q1162.0578898678414 90.17000000000019 1163.6778898678413 89.52000000000021V59.71000000000021Q1163.6778898678413 52.37000000000023 1161.4078898678413 49.56000000000023T1154.1778898678413 46.75000000000023Q1150.1778898678413 46.75000000000023 1146.3978898678413 48.32000000000022T1139.6978898678412 53.230000000000246V89.52000000000027L1146.9378898678412 91.68000000000029Q1147.2578898678412 93.7300000000003 1146.3978898678413 95.46000000000026Q1143.4778898678414 95.25000000000028 1140.4078898678413 95.08000000000027Q1137.3278898678413 94.92000000000024 1134.2978898678411 94.92000000000024Q1131.2778898678412 94.92000000000024 1127.7178898678412 95.08000000000027Q1124.147889867841 95.25000000000028 1121.127889867841 95.46000000000026Q1120.7978898678411 93.41000000000025 1121.337889867841 91.68000000000029Q1123.2878898678414 91.14000000000027 1125.2278898678412 90.66000000000031Q1127.1778898678413 90.1700000000003 1128.897889867841 89.52000000000032V47.400000000000034L1119.937889867841 46.54000000000002Q1119.617889867841 44.379999999999995 1120.477889867841 42.76000000000005Q1124.477889867841 42.11000000000007 1128.2578898678412 41.35000000000002Q1132.037889867841 40.60000000000002 1135.4878898678412 39.84000000000003Q1137.3278898678411 39.950000000000045 1139.157889867841 40.81000000000006M1203.417889867841 14.470000000000084V65.0200000000001H1206.227889867841L1223.507889867841 45.79000000000008L1215.627889867841 44.17000000000007Q1215.517889867841 43.740000000000066 1215.517889867841 42.980000000000075Q1215.517889867841 41.690000000000055 1216.167889867841 40.3900000000001Q1219.077889867841 40.500000000000114 1221.6178898678409 40.720000000000084Q1224.1578898678408 40.930000000000064 1227.1778898678408 40.930000000000064Q1230.317889867841 40.930000000000064 1232.307889867841 40.720000000000084Q1234.307889867841 40.50000000000006 1237.3378898678409 40.3900000000001Q1237.437889867841 40.82000000000011 1237.437889867841 41.2000000000001V42.010000000000105Q1237.437889867841 42.98000000000013 1237.1178898678409 44.17000000000013Q1235.3878898678408 44.28000000000014 1233.017889867841 44.98000000000013Q1230.6378898678408 45.68000000000012 1229.017889867841 46.87000000000012L1214.327889867841 62.6400000000001L1234.307889867841 89.53000000000009Q1235.2778898678407 90.40000000000009 1237.3878898678408 90.94000000000011T1241.5478898678407 91.69000000000011Q1241.5478898678407 92.0200000000001 1241.5978898678409 92.29000000000013Q1241.6578898678408 92.56000000000012 1241.6578898678408 92.88000000000011Q1241.6578898678408 94.18000000000012 1241.0078898678407 95.47000000000008Q1237.8778898678406 95.2600000000001 1234.6878898678406 95.15000000000009T1228.1578898678408 95.04000000000008Q1225.7778898678407 95.04000000000008 1223.3478898678409 95.15000000000009T1218.327889867841 95.47000000000008Q1218.2178898678408 95.04000000000008 1218.2178898678408 94.66000000000008V93.9600000000001Q1218.2178898678408 92.7700000000001 1218.537889867841 91.69000000000011L1223.8378898678407 91.37000000000012L1208.3878898678408 69.34000000000015H1203.4178898678406V89.53000000000014L1210.6578898678408 91.69000000000017Q1210.6578898678408 92.02000000000015 1210.7078898678405 92.29000000000019Q1210.7678898678405 92.56000000000017 1210.7678898678405 92.88000000000017Q1210.7678898678405 94.18000000000018 1210.1178898678406 95.47000000000014Q1207.1978898678408 95.26000000000016 1204.1278898678406 95.09000000000015Q1201.0478898678407 94.93000000000012 1198.0178898678405 94.93000000000012Q1194.9978898678405 94.93000000000012 1191.4378898678406 95.09000000000015Q1187.8678898678404 95.26000000000016 1184.8478898678404 95.47000000000014Q1184.7378898678405 95.04000000000013 1184.7378898678405 94.66000000000014V93.96000000000015Q1184.7378898678405 92.77000000000015 1185.0578898678405 91.69000000000017Q1187.1178898678404 91.15000000000015 1189.1078898678406 90.72000000000014Q1191.1078898678406 90.29000000000013 1192.6178898678404 89.53000000000014V20.840000000000146L1183.6578898678404 19.980000000000132Q1183.5478898678405 19.66000000000014 1183.5478898678405 19.330000000000155V18.790000000000134Q1183.5478898678405 17.500000000000114 1184.1978898678403 16.20000000000016Q1188.0878898678404 15.660000000000139 1192.0278898678405 14.900000000000148Q1195.9678898678405 14.150000000000148 1199.3178898678404 13.280000000000143Q1200.3978898678406 13.390000000000157 1201.3678898678404 13.660000000000139T1203.4178898678404 14.470000000000141 "></path><g transform="matrix(1.4 0 0 1.4 180.44 413.09)"><linearGradient id="a" x1="0" x2="1" y1="0" y2="0" gradientUnits="objectBoundingBox" x="0" y="0"><stop offset="0%" stop-color="#dede50"></stop><stop offset="100%" stop-color="#559c49"></stop></linearGradient><path fill="url(#a)" d="M428.41992133417256 -164.0285714285714Q429.7699213341726 -163.1285714285714 431.41992133417256 -163.1285714285714H458.61992133417255C461.5199213341726 -163.1285714285714 463.91992133417256 -165.5285714285714 463.91992133417256 -168.4285714285714S461.5199213341726 -173.7285714285714 458.61992133417255 -173.7285714285714H442.3199213341726C442.11992133417255 -173.3285714285714 441.91992133417256 -172.9285714285714 441.61992133417255 -172.5285714285714A7.54 7.54 0 0 1 431.21992133417257 -170.62857142857138L421.8199213341726 -177.3285714285714L418.41992133417256 -179.8285714285714L418.1199213341726 -180.0285714285714C417.71992133417257 -180.3285714285714 417.6199213341726 -180.9285714285714 417.8199213341726 -181.3285714285714C418.1199213341726 -181.7285714285714 418.71992133417257 -181.8285714285714 419.1199213341726 -181.62857142857138L423.8199213341726 -178.52857142857138L432.4199213341726 -172.62857142857138C432.8199213341726 -172.3285714285714 433.3199213341726 -172.12857142857138 433.71992133417257 -171.9285714285714A5.1 5.1 0 0 0 439.71992133417257 -173.9285714285714C441.3199213341726 -176.3285714285714 440.71992133417257 -179.62857142857138 438.3199213341726 -181.2285714285714L414.8199213341726 -197.12857142857143Q413.46992133417257 -198.0285714285714 411.8199213341726 -198.0285714285714H394.11992133417255V-180.42857142857142H404.8199213341726Z " transform="translate(-45.5 -61.85)"></path></g><g transform="matrix(1.4 0 0 1.4 198.36 382.99)"><linearGradient id="b" x1="0" x2="1" y1="0" y2="0" gradientUnits="objectBoundingBox" x="0" y="0"><stop offset="0%" stop-color="#dede50"></stop><stop offset="100%" stop-color="#559c49"></stop></linearGradient><path fill="url(#b)" d="M450.3199213341725 -217.72857142857143C446.71992133417245 -217.72857142857143 443.51992133417247 -215.82857142857142 441.8199213341725 -212.92857142857142A10 10 0 0 0 433.3199213341725 -217.72857142857143C427.8199213341725 -217.72857142857143 423.3199213341725 -213.22857142857143 423.3199213341725 -207.7285714285714V-206.92857142857142S424.71992133417245 -195.62857142857143 441.8199213341725 -186.42857142857142C458.91992133417244 -195.62857142857143 460.3199213341725 -206.92857142857142 460.3199213341725 -206.92857142857142V-207.7285714285714C460.3199213341725 -213.2285714285714 455.8199213341725 -217.7285714285714 450.3199213341725 -217.7285714285714 " transform="translate(-58.3 -40.35)"></path></g></g><rect width="701" height="122" x="649.5" y="0" id="space-saver" fill="transparent" stroke="transparent"></rect></g></svg>