<svg xmlns="http://www.w3.org/2000/svg"  width="38" height="38" viewBox="710 0 1 122"><g id="outer-wrapper" transform="matrix(1,0,0,1,0,0)"><g id="inner-wrapper" transform="matrix(0.9714693295292439,0,0,0.9714693295292439,10,1.7403708987161224)"><g transform="matrix(1.4 0 0 1.4 180.44 413.09)"><linearGradient id="a" x1="0" x2="1" y1="0" y2="0" gradientUnits="objectBoundingBox" x="0" y="0"><stop offset="0%" stop-color="#dede50"></stop><stop offset="100%" stop-color="#559c49"></stop></linearGradient><path fill="url(#a)" d="M428.41992133417256 -164.0285714285714Q429.7699213341726 -163.1285714285714 431.41992133417256 -163.1285714285714H458.61992133417255C461.5199213341726 -163.1285714285714 463.91992133417256 -165.5285714285714 463.91992133417256 -168.4285714285714S461.5199213341726 -173.7285714285714 458.61992133417255 -173.7285714285714H442.3199213341726C442.11992133417255 -173.3285714285714 441.91992133417256 -172.9285714285714 441.61992133417255 -172.5285714285714A7.54 7.54 0 0 1 431.21992133417257 -170.62857142857138L421.8199213341726 -177.3285714285714L418.41992133417256 -179.8285714285714L418.1199213341726 -180.0285714285714C417.71992133417257 -180.3285714285714 417.6199213341726 -180.9285714285714 417.8199213341726 -181.3285714285714C418.1199213341726 -181.7285714285714 418.71992133417257 -181.8285714285714 419.1199213341726 -181.62857142857138L423.8199213341726 -178.52857142857138L432.4199213341726 -172.62857142857138C432.8199213341726 -172.3285714285714 433.3199213341726 -172.12857142857138 433.71992133417257 -171.9285714285714A5.1 5.1 0 0 0 439.71992133417257 -173.9285714285714C441.3199213341726 -176.3285714285714 440.71992133417257 -179.62857142857138 438.3199213341726 -181.2285714285714L414.8199213341726 -197.12857142857143Q413.46992133417257 -198.0285714285714 411.8199213341726 -198.0285714285714H394.11992133417255V-180.42857142857142H404.8199213341726Z " transform="translate(-45.5 -61.85)"></path></g><g transform="matrix(1.4 0 0 1.4 198.36 382.99)"><linearGradient id="b" x1="0" x2="1" y1="0" y2="0" gradientUnits="objectBoundingBox" x="0" y="0"><stop offset="0%" stop-color="#dede50"></stop><stop offset="100%" stop-color="#559c49"></stop></linearGradient><path fill="url(#b)" d="M450.3199213341725 -217.72857142857143C446.71992133417245 -217.72857142857143 443.51992133417247 -215.82857142857142 441.8199213341725 -212.92857142857142A10 10 0 0 0 433.3199213341725 -217.72857142857143C427.8199213341725 -217.72857142857143 423.3199213341725 -213.22857142857143 423.3199213341725 -207.7285714285714V-206.92857142857142S424.71992133417245 -195.62857142857143 441.8199213341725 -186.42857142857142C458.91992133417244 -195.62857142857143 460.3199213341725 -206.92857142857142 460.3199213341725 -206.92857142857142V-207.7285714285714C460.3199213341725 -213.2285714285714 455.8199213341725 -217.7285714285714 450.3199213341725 -217.7285714285714 " transform="translate(-58.3 -40.35)"></path></g></g><rect width="701" height="122" x="649.5" y="0" id="space-saver" fill="transparent" stroke="transparent"></rect></g></svg>